<mxfile host="65bd71144e">
    <diagram id="A_HeyV-ZiP-b7Dq5QNC5" name="Page-1">
        <mxGraphModel dx="692" dy="817" grid="1" gridSize="10" guides="1" tooltips="1" connect="1" arrows="1" fold="1" page="1" pageScale="1" pageWidth="827" pageHeight="1169" math="0" shadow="0">
            <root>
                <mxCell id="0"/>
                <mxCell id="1" parent="0"/>
                <mxCell id="2" value="" style="rounded=0;whiteSpace=wrap;html=1;" parent="1" vertex="1">
                    <mxGeometry x="60" y="110" width="530" height="510" as="geometry"/>
                </mxCell>
                <mxCell id="3" value="" style="rounded=0;whiteSpace=wrap;html=1;align=left;fillColor=#d5e8d4;strokeColor=#82b366;" parent="1" vertex="1">
                    <mxGeometry x="90" y="130" width="470" height="240" as="geometry"/>
                </mxCell>
                <mxCell id="4" value="&lt;font style=&quot;font-size: 18px;&quot;&gt;Server&lt;/font&gt;" style="rounded=0;whiteSpace=wrap;html=1;fillColor=#fad7ac;strokeColor=#b46504;" parent="1" vertex="1">
                    <mxGeometry x="90" y="380" width="470" height="110" as="geometry"/>
                </mxCell>
                <mxCell id="5" value="Client" style="text;html=1;strokeColor=none;fillColor=none;align=center;verticalAlign=middle;whiteSpace=wrap;rounded=0;fontSize=18;" parent="1" vertex="1">
                    <mxGeometry x="90" y="235" width="120" height="30" as="geometry"/>
                </mxCell>
                <mxCell id="6" value="" style="rounded=0;whiteSpace=wrap;html=1;fontSize=18;align=left;fillColor=#ffe6cc;strokeColor=#d79b00;" parent="1" vertex="1">
                    <mxGeometry x="200" y="210" width="340" height="140" as="geometry"/>
                </mxCell>
                <mxCell id="7" value="Editor" style="text;html=1;strokeColor=none;fillColor=none;align=center;verticalAlign=middle;whiteSpace=wrap;rounded=0;fontSize=18;" parent="1" vertex="1">
                    <mxGeometry x="230" y="265" width="60" height="30" as="geometry"/>
                </mxCell>
                <mxCell id="9" value="UI" style="rounded=0;whiteSpace=wrap;html=1;fontSize=18;align=center;fillColor=#b1ddf0;strokeColor=#10739e;" parent="1" vertex="1">
                    <mxGeometry x="200" y="150" width="340" height="40" as="geometry"/>
                </mxCell>
                <mxCell id="10" value="DSL-Core" style="rounded=0;whiteSpace=wrap;html=1;fontSize=18;fillColor=#d0cee2;strokeColor=#56517e;" parent="1" vertex="1">
                    <mxGeometry x="320" y="240" width="180" height="80" as="geometry"/>
                </mxCell>
                <mxCell id="11" value="CLI" style="rounded=0;whiteSpace=wrap;html=1;fontSize=18;align=center;fillColor=#bac8d3;strokeColor=#23445d;" parent="1" vertex="1">
                    <mxGeometry x="90" y="500" width="470" height="100" as="geometry"/>
                </mxCell>
                <mxCell id="12" value="" style="rounded=0;whiteSpace=wrap;html=1;fontSize=18;fillColor=#d0cee2;strokeColor=#56517e;align=left;" vertex="1" parent="1">
                    <mxGeometry x="30" y="730" width="650" height="350" as="geometry"/>
                </mxCell>
                <mxCell id="13" value="DSL-Core" style="text;html=1;strokeColor=none;fillColor=none;align=center;verticalAlign=middle;whiteSpace=wrap;rounded=0;fontSize=18;" vertex="1" parent="1">
                    <mxGeometry x="20" y="895" width="160" height="30" as="geometry"/>
                </mxCell>
                <mxCell id="16" value="" style="rounded=0;whiteSpace=wrap;html=1;fontSize=18;" vertex="1" parent="1">
                    <mxGeometry x="180" y="755" width="450" height="135" as="geometry"/>
                </mxCell>
                <mxCell id="14" value="DSL-Traverser" style="rounded=0;whiteSpace=wrap;html=1;fontSize=18;" vertex="1" parent="1">
                    <mxGeometry x="370" y="787.5" width="191" height="60" as="geometry"/>
                </mxCell>
                <mxCell id="17" value="DSL-Form-Renderer" style="rounded=0;whiteSpace=wrap;html=1;fontSize=18;" vertex="1" parent="1">
                    <mxGeometry x="415" y="920" width="215" height="60" as="geometry"/>
                </mxCell>
                <mxCell id="18" value="DSL-Parser" style="text;html=1;strokeColor=none;fillColor=none;align=center;verticalAlign=middle;whiteSpace=wrap;rounded=0;fontSize=18;" vertex="1" parent="1">
                    <mxGeometry x="240" y="802.5" width="120" height="30" as="geometry"/>
                </mxCell>
                <mxCell id="19" value="DSL-Service-Renderer" style="rounded=0;whiteSpace=wrap;html=1;fontSize=18;" vertex="1" parent="1">
                    <mxGeometry x="180" y="990" width="215" height="60" as="geometry"/>
                </mxCell>
                <mxCell id="20" value="DSL-Basic-Renderer" style="rounded=0;whiteSpace=wrap;html=1;fontSize=18;" vertex="1" parent="1">
                    <mxGeometry x="180" y="920" width="215" height="60" as="geometry"/>
                </mxCell>
                <mxCell id="21" value="DSL-Block-Renderer" style="rounded=0;whiteSpace=wrap;html=1;fontSize=18;" vertex="1" parent="1">
                    <mxGeometry x="415" y="990" width="215" height="60" as="geometry"/>
                </mxCell>
            </root>
        </mxGraphModel>
    </diagram>
</mxfile>